# Blender 4.0.1
# www.blender.org
o bricks
v -10.000000 1.999996 -10.000000
v -11.000000 1.999996 -11.000000
v -10.000000 2.000004 9.999999
v 10.000000 2.000004 9.999999
v 10.000000 1.999996 -10.000000
v 11.000000 1.999996 -11.000000
v 11.000000 2.000004 11.000001
v -11.000000 2.000004 11.000001
v -10.000000 -1.000004 -10.000000
v -11.000000 -1.000004 -11.000001
v -10.000000 -0.999996 9.999999
v 10.000000 -0.999996 9.999999
v 10.000000 -1.000004 -10.000000
v 11.000000 -1.000004 -11.000001
v 11.000000 -0.999996 11.000001
v -11.000000 -0.999996 11.000001
v 5.972705 0.030990 -3.285094
v -6.027295 0.030990 -3.285094
v 5.972705 0.030993 7.964907
v -6.027295 0.030993 7.964907
v 6.572704 0.030990 -3.285094
v -6.627295 0.030990 -3.285094
v 6.572704 0.030993 8.714907
v -6.627295 0.030993 8.714907
v 6.572704 5.030990 -3.285094
v 5.972705 4.030990 -3.285094
v -6.627295 5.030990 -3.285094
v -6.027295 4.030990 -3.285094
v 6.572704 5.030993 8.714907
v 5.972705 4.030993 7.964907
v -6.627295 5.030993 8.714907
v -6.027295 4.030993 7.964907
v 5.972705 0.030990 -3.285094
v -6.027295 0.030990 -3.285094
v 6.572704 0.030990 -3.285094
v -6.627295 0.030990 -3.285094
v 6.572704 5.030990 -3.285094
v 5.972705 4.030990 -3.285094
v -6.627295 5.030990 -3.285094
v -6.027295 4.030990 -3.285094
vn 1.0000 -0.0000 -0.0000
vn -0.0000 -0.0000 1.0000
vn -1.0000 -0.0000 -0.0000
vn -0.0000 -0.0000 -1.0000
vt 5.500000 1.000000
vt -4.500000 0.000000
vt 5.500000 0.000000
vt -4.500000 1.000000
vt 5.499999 0.000000
vt -1.492188 1.500000
vt 2.507812 -0.500000
vt 2.507812 1.500000
vt -1.492188 -0.500000
vt 1.991905 -0.977696
vt 1.884289 1.407779
vt 1.858793 -0.979901
vt -1.027075 2.027075
vt 2.027075 2.018580
vt -0.990350 -1.027075
vt -0.878844 1.404572
vt -0.852305 -1.024790
s 0
f 15/1/1 6/2/1 7/3/1
f 16/1/2 7/2/2 8/3/2
f 16/3/3 2/4/3 10/2/3
f 14/2/4 2/1/4 6/4/4
f 11/1/1 1/2/1 3/3/1
f 1/3/2 13/4/2 5/2/2
f 5/4/3 12/3/3 4/1/3
f 4/4/4 11/5/4 3/1/4
f 32/6/1 18/7/1 28/8/1
f 17/8/3 30/9/3 26/7/3
f 19/9/4 32/8/4 30/6/4
f 29/6/1 21/7/1 25/8/1
f 31/7/2 23/6/2 29/9/2
f 22/8/3 31/9/3 27/7/3
f 36/10/4 40/11/4 34/12/4
f 37/13/4 40/11/4 39/14/4
f 35/15/4 38/16/4 37/13/4
f 15/1/1 14/4/1 6/2/1
f 16/1/2 15/4/2 7/2/2
f 16/3/3 8/1/3 2/4/3
f 14/2/4 10/3/4 2/1/4
f 11/1/1 9/4/1 1/2/1
f 1/3/2 9/1/2 13/4/2
f 5/4/3 13/2/3 12/3/3
f 4/4/4 12/2/4 11/5/4
f 32/6/1 20/9/1 18/7/1
f 17/8/3 19/6/3 30/9/3
f 19/9/4 20/7/4 32/8/4
f 29/6/1 23/9/1 21/7/1
f 31/7/2 24/8/2 23/6/2
f 22/8/3 24/6/3 31/9/3
f 36/10/4 39/14/4 40/11/4
f 37/13/4 38/16/4 40/11/4
f 35/15/4 33/17/4 38/16/4
o concrete
v -10.000000 1.999996 -10.000000
v -11.000000 1.999996 -11.000000
v -10.000000 2.000004 9.999999
v 10.000000 2.000004 9.999999
v 10.000000 1.999996 -10.000000
v 11.000000 1.999996 -11.000000
v 11.000000 2.000004 11.000001
v -11.000000 2.000004 11.000001
v -10.000000 -1.000004 -10.000000
v -11.000000 -1.000004 -11.000001
v -10.000000 -0.999996 9.999999
v 10.000000 -0.999996 9.999999
v 10.000000 -1.000004 -10.000000
v 11.000000 -1.000004 -11.000001
v 11.000000 -0.999996 11.000001
v -11.000000 -0.999996 11.000001
v 5.972705 4.030990 -3.285094
v -6.027295 4.030990 -3.285094
v 5.972705 4.030993 7.964907
v -6.027295 4.030993 7.964907
v 6.572704 5.030990 -3.285094
v -6.627295 5.030990 -3.285094
v 6.572704 5.030993 8.714907
v -6.627295 5.030993 8.714907
vn -0.0000 1.0000 -0.0000
vn -0.0000 -1.0000 -0.0000
vt -4.501953 5.501953
vt -4.044922 -4.044922
vt -4.044922 5.044922
vt 5.501953 5.501953
vt 5.044922 -4.044922
vt 5.044922 5.044922
vt -4.501953 -4.501953
vt 5.501953 -4.501953
vt -1.697958 -1.697958
vt 2.697958 2.697958
vt 2.697958 -1.697958
vt -1.697958 2.697958
s 0
f 42/18/5 43/19/5 41/20/5
f 41/20/5 46/21/5 42/18/5
f 44/22/5 46/21/5 45/23/5
f 48/24/5 44/22/5 43/19/5
f 50/18/6 51/19/6 56/24/6
f 51/19/6 55/25/6 56/24/6
f 52/22/6 54/21/6 55/25/6
f 53/23/6 50/18/6 54/21/6
f 60/26/6 57/27/6 59/28/6
f 61/27/5 64/26/5 63/28/5
f 42/18/5 48/24/5 43/19/5
f 41/20/5 45/23/5 46/21/5
f 44/22/5 47/25/5 46/21/5
f 48/24/5 47/25/5 44/22/5
f 50/18/6 49/20/6 51/19/6
f 51/19/6 52/22/6 55/25/6
f 52/22/6 53/23/6 54/21/6
f 53/23/6 49/20/6 50/18/6
f 60/26/6 58/29/6 57/27/6
f 61/27/5 62/29/5 64/26/5
o grass
v -10.000000 -0.999996 10.000000
v -10.000000 0.000004 10.000000
v -10.000000 -1.000004 -10.000000
v -10.000000 -0.000004 -10.000000
v 10.000000 -0.999996 10.000000
v 10.000000 0.000004 10.000000
v 10.000000 -1.000004 -10.000000
v 10.000000 -0.000004 -10.000000
vn -0.0000 -1.0000 -0.0000
vn -0.0000 1.0000 -0.0000
vt 5.501953 5.501953
vt -4.501953 -4.501953
vt -4.501953 5.501953
vt 5.501953 -4.501953
s 0
f 71/30/7 65/31/7 67/32/7
f 68/32/8 70/33/8 72/30/8
f 71/30/7 69/33/7 65/31/7
f 68/32/8 66/31/8 70/33/8
o red
v -1.000000 0.000000 0.000000
v 1.000000 0.000000 0.000000
v -1.000000 -0.000000 -6.000000
v 1.000000 -0.000000 -6.000000
v -1.000000 0.500000 -0.000000
v 1.000000 0.500000 -0.000000
v -1.000000 0.500000 -6.000000
v 1.000000 0.500000 -6.000000
v -1.000000 0.500000 -0.000000
v 1.000000 0.500000 -0.000000
v -1.000000 0.500000 -6.000000
v 1.000000 0.500000 -6.000000
vn 1.0000 -0.0000 -0.0000
vn -1.0000 -0.0000 -0.0000
vn -0.0000 -0.0000 -1.0000
vn -0.0000 -0.0000 1.0000
vn -0.0000 1.0000 -0.0000
vt 0.500000 -0.000000
vt 0.750000 1.000000
vt 0.500000 1.000000
vt 0.250000 1.000000
vt 0.000000 0.000000
vt 0.250000 -0.000000
vt 0.750000 0.000000
vt 1.000000 1.000000
vt 1.000000 0.000000
vt 0.000000 1.000000
s 0
f 76/34/9 78/35/9 74/36/9
f 73/37/10 79/38/10 75/39/10
f 75/36/11 80/39/11 76/34/11
f 74/40/12 77/41/12 73/35/12
f 82/42/13 83/43/13 81/38/13
f 76/34/9 80/40/9 78/35/9
f 73/37/10 77/43/10 79/38/10
f 75/36/11 79/37/11 80/39/11
f 74/40/12 78/42/12 77/41/12
f 82/42/13 84/41/13 83/43/13
