# Blender 4.0.1
# www.blender.org
v 0.000000 0.191342 -0.461940
v 0.000000 0.000000 -0.500000
v 0.000000 -0.191342 -0.461940
v 0.000000 -0.461940 -0.191342
v 0.073223 0.461940 -0.176777
v 0.135299 0.353553 -0.326641
v 0.176777 0.191342 -0.426777
v 0.191342 0.000000 -0.461940
v 0.176777 -0.191342 -0.426777
v 0.135299 -0.353553 -0.326641
v 0.073223 -0.461940 -0.176777
v 0.135299 0.461940 -0.135299
v 0.250000 0.353553 -0.250000
v 0.326641 0.191342 -0.326641
v 0.353553 0.000000 -0.353553
v 0.326641 -0.191342 -0.326641
v 0.250000 -0.353553 -0.250000
v 0.135299 -0.461940 -0.135299
v 0.176777 0.461940 -0.073223
v 0.326641 0.353553 -0.135299
v 0.426777 0.191342 -0.176777
v 0.461940 0.000000 -0.191342
v 0.426777 -0.191342 -0.176777
v 0.326641 -0.353553 -0.135299
v 0.176777 -0.461940 -0.073223
v 0.191342 0.461940 0.000000
v 0.353553 0.353553 0.000000
v 0.461940 0.191342 0.000000
v 0.500000 0.000000 0.000000
v 0.461940 -0.191342 0.000000
v 0.353553 -0.353553 0.000000
v 0.191342 -0.461940 0.000000
v 0.176777 0.461940 0.073223
v 0.326641 0.353553 0.135299
v 0.426777 0.191342 0.176777
v 0.461940 0.000000 0.191342
v 0.426777 -0.191342 0.176777
v 0.326641 -0.353553 0.135299
v 0.176777 -0.461940 0.073223
v 0.135299 0.461940 0.135299
v 0.250000 0.353553 0.250000
v 0.326641 0.191342 0.326641
v 0.353553 0.000000 0.353553
v 0.326641 -0.191342 0.326641
v 0.250000 -0.353553 0.250000
v 0.135299 -0.461940 0.135299
v 0.073223 0.461940 0.176777
v 0.135299 0.353553 0.326641
v 0.176777 0.191342 0.426777
v 0.191342 0.000000 0.461940
v 0.176777 -0.191342 0.426777
v 0.135299 -0.353553 0.326641
v 0.073223 -0.461940 0.176777
v -0.000000 0.461940 0.191342
v -0.000000 0.353553 0.353553
v -0.000000 0.191342 0.461940
v -0.000000 0.000000 0.500000
v -0.000000 -0.191342 0.461940
v -0.000000 -0.353553 0.353553
v -0.000000 -0.461940 0.191342
v 0.000000 -0.500000 0.000000
v 0.000000 0.500000 0.000000
v -0.073223 0.461940 0.176777
v -0.135299 0.353553 0.326641
v -0.176777 0.191342 0.426777
v -0.191342 0.000000 0.461940
v -0.176777 -0.191342 0.426777
v -0.135299 -0.353553 0.326641
v -0.073223 -0.461940 0.176777
v -0.135299 0.461940 0.135299
v -0.250000 0.353553 0.250000
v -0.326641 0.191342 0.326641
v -0.353554 0.000000 0.353553
v -0.326641 -0.191342 0.326641
v -0.250000 -0.353553 0.250000
v -0.135299 -0.461940 0.135299
v -0.176777 0.461940 0.073223
v -0.326641 0.353553 0.135299
v -0.426777 0.191342 0.176777
v -0.461940 0.000000 0.191341
v -0.426777 -0.191342 0.176777
v -0.326641 -0.353553 0.135299
v -0.176777 -0.461940 0.073223
v -0.191342 0.461940 -0.000000
v -0.353553 0.353553 -0.000000
v -0.461940 0.191342 -0.000000
v -0.500000 0.000000 -0.000000
v -0.461940 -0.191342 -0.000000
v -0.353553 -0.353553 -0.000000
v -0.191342 -0.461940 -0.000000
v -0.176777 0.461940 -0.073223
v -0.326641 0.353553 -0.135299
v -0.426777 0.191342 -0.176777
v -0.461940 0.000000 -0.191342
v -0.426777 -0.191342 -0.176777
v -0.326641 -0.353553 -0.135299
v -0.176777 -0.461940 -0.073223
v -0.135299 0.461940 -0.135299
v -0.250000 0.353553 -0.250000
v -0.326641 0.191342 -0.326641
v -0.353553 0.000000 -0.353554
v -0.326641 -0.191342 -0.326641
v -0.250000 -0.353553 -0.250000
v -0.135299 -0.461940 -0.135299
v -0.073223 0.461940 -0.176777
v -0.135299 0.353553 -0.326641
v -0.176776 0.191342 -0.426777
v -0.191341 0.000000 -0.461940
v -0.176776 -0.191342 -0.426777
v -0.135299 -0.353553 -0.326641
v -0.073223 -0.461940 -0.176777
v 0.000000 0.461940 -0.191342
v 0.000000 0.353553 -0.353553
v 0.000000 -0.353553 -0.353553
vn -0.0000 0.9152 -0.4031
vn -0.0000 1.0000 -0.0000
vn 0.1543 0.9152 -0.3724
vn -0.0000 -1.0000 -0.0000
vn -0.0000 -0.9152 -0.4031
vn 0.1543 -0.9152 -0.3724
vn -0.0000 -0.6952 -0.7189
vn 0.3549 -0.3744 -0.8567
vn 0.2751 -0.6952 -0.6641
vn -0.0000 0.3744 -0.9273
vn 0.3827 -0.0000 -0.9239
vn -0.0000 -0.0000 -1.0000
vn -0.0000 0.6952 -0.7189
vn 0.2751 0.6952 -0.6641
vn -0.0000 -0.3744 -0.9273
vn 0.3549 0.3744 -0.8567
vn 0.7071 -0.0000 -0.7071
vn 0.5083 0.6952 -0.5083
vn 0.2850 -0.9152 -0.2850
vn 0.6557 -0.3744 -0.6557
vn 0.6557 0.3744 -0.6557
vn 0.2850 0.9152 -0.2850
vn 0.5083 -0.6952 -0.5083
vn 0.3724 -0.9152 -0.1543
vn 0.8567 -0.3744 -0.3549
vn 0.8567 0.3744 -0.3549
vn 0.3724 0.9152 -0.1543
vn 0.6641 -0.6952 -0.2751
vn 0.9239 -0.0000 -0.3827
vn 0.6641 0.6952 -0.2751
vn 0.7189 0.6952 -0.0000
vn 0.9273 0.3744 -0.0000
vn 0.4031 0.9152 -0.0000
vn 0.4031 -0.9152 -0.0000
vn 0.7189 -0.6952 -0.0000
vn 1.0000 -0.0000 -0.0000
vn 0.9273 -0.3744 -0.0000
vn 0.3724 -0.9152 0.1543
vn 0.6641 -0.6952 0.2751
vn 0.9239 -0.0000 0.3827
vn 0.3724 0.9152 0.1543
vn 0.6641 0.6952 0.2751
vn 0.8567 -0.3744 0.3549
vn 0.8567 0.3744 0.3549
vn 0.2850 0.9152 0.2850
vn 0.5083 0.6952 0.5083
vn 0.5083 -0.6952 0.5083
vn 0.2850 -0.9152 0.2850
vn 0.6557 -0.3744 0.6557
vn 0.6557 0.3744 0.6557
vn 0.7071 -0.0000 0.7071
vn 0.1543 -0.9152 0.3724
vn 0.3827 -0.0000 0.9239
vn 0.3549 -0.3744 0.8567
vn 0.3549 0.3744 0.8567
vn 0.1543 0.9152 0.3724
vn 0.2751 -0.6952 0.6641
vn 0.2751 0.6952 0.6641
vn -0.0000 0.9152 0.4031
vn -0.0000 -0.9152 0.4031
vn -0.0000 -0.6952 0.7189
vn -0.0000 0.3744 0.9273
vn -0.0000 -0.0000 1.0000
vn -0.0000 0.6952 0.7189
vn -0.0000 -0.3744 0.9273
vn -0.3549 -0.3744 0.8567
vn -0.2751 -0.6952 0.6641
vn -0.3827 -0.0000 0.9239
vn -0.2751 0.6952 0.6641
vn -0.1543 -0.9152 0.3724
vn -0.3549 0.3744 0.8567
vn -0.1543 0.9152 0.3724
vn -0.5083 -0.6952 0.5083
vn -0.2850 -0.9152 0.2850
vn -0.6557 -0.3744 0.6557
vn -0.6557 0.3744 0.6557
vn -0.2850 0.9152 0.2850
vn -0.7071 -0.0000 0.7071
vn -0.5083 0.6952 0.5083
vn -0.8567 -0.3744 0.3549
vn -0.8567 0.3744 0.3549
vn -0.3724 0.9152 0.1543
vn -0.3724 -0.9152 0.1543
vn -0.6641 -0.6952 0.2751
vn -0.9239 -0.0000 0.3827
vn -0.6641 0.6952 0.2751
vn -0.4031 -0.9152 -0.0000
vn -0.9273 -0.3744 -0.0000
vn -0.7189 -0.6952 -0.0000
vn -0.9273 0.3744 -0.0000
vn -1.0000 -0.0000 -0.0000
vn -0.4031 0.9152 -0.0000
vn -0.7189 0.6952 -0.0000
vn -0.8567 0.3744 -0.3549
vn -0.9239 -0.0000 -0.3827
vn -0.6641 0.6952 -0.2751
vn -0.3724 -0.9152 -0.1543
vn -0.8567 -0.3744 -0.3549
vn -0.3724 0.9152 -0.1543
vn -0.6641 -0.6952 -0.2751
vn -0.2850 -0.9152 -0.2850
vn -0.6557 -0.3744 -0.6557
vn -0.6557 0.3744 -0.6557
vn -0.2850 0.9152 -0.2850
vn -0.5083 -0.6952 -0.5083
vn -0.7071 -0.0000 -0.7071
vn -0.5083 0.6952 -0.5083
vn -0.3549 0.3744 -0.8567
vn -0.1543 0.9152 -0.3724
vn -0.1543 -0.9152 -0.3724
vn -0.3549 -0.3744 -0.8567
vn -0.2751 -0.6952 -0.6641
vn -0.3827 -0.0000 -0.9239
vn -0.2751 0.6952 -0.6641
vt 0.750000 0.875000
vt 0.718750 1.000000
vt 0.687500 0.875000
vt 0.718750 0.000000
vt 0.750000 0.125000
vt 0.687500 0.125000
vt 0.750000 0.250000
vt 0.687500 0.375000
vt 0.687500 0.250000
vt 0.750000 0.625000
vt 0.687500 0.500000
vt 0.750000 0.500000
vt 0.750000 0.750000
vt 0.687500 0.750000
vt 0.750000 0.375000
vt 0.687500 0.625000
vt 0.625000 0.500000
vt 0.625000 0.750000
vt 0.625000 0.125000
vt 0.625000 0.375000
vt 0.625000 0.625000
vt 0.656250 1.000000
vt 0.625000 0.875000
vt 0.656250 0.000000
vt 0.625000 0.250000
vt 0.562500 0.125000
vt 0.562500 0.375000
vt 0.562500 0.625000
vt 0.593750 1.000000
vt 0.562500 0.875000
vt 0.593750 0.000000
vt 0.562500 0.250000
vt 0.562500 0.500000
vt 0.562500 0.750000
vt 0.500000 0.750000
vt 0.500000 0.625000
vt 0.531250 1.000000
vt 0.500000 0.875000
vt 0.531250 0.000000
vt 0.500000 0.125000
vt 0.500000 0.250000
vt 0.500000 0.500000
vt 0.500000 0.375000
vt 0.468750 0.000000
vt 0.437500 0.125000
vt 0.437500 0.250000
vt 0.437500 0.500000
vt 0.437500 0.875000
vt 0.437500 0.750000
vt 0.437500 0.375000
vt 0.437500 0.625000
vt 0.468750 1.000000
vt 0.375000 0.875000
vt 0.375000 0.750000
vt 0.375000 0.250000
vt 0.375000 0.125000
vt 0.375000 0.375000
vt 0.375000 0.625000
vt 0.406250 1.000000
vt 0.406250 0.000000
vt 0.375000 0.500000
vt 0.312500 0.125000
vt 0.312500 0.500000
vt 0.312500 0.375000
vt 0.312500 0.625000
vt 0.343750 1.000000
vt 0.312500 0.875000
vt 0.343750 0.000000
vt 0.312500 0.250000
vt 0.312500 0.750000
vt 0.281250 1.000000
vt 0.250000 0.875000
vt 0.281250 0.000000
vt 0.250000 0.125000
vt 0.250000 0.250000
vt 0.250000 0.625000
vt 0.250000 0.500000
vt 0.250000 0.750000
vt 0.250000 0.375000
vt 0.187500 0.375000
vt 0.187500 0.250000
vt 0.187500 0.500000
vt 0.187500 0.750000
vt 0.187500 0.125000
vt 0.187500 0.625000
vt 0.218750 1.000000
vt 0.187500 0.875000
vt 0.218750 0.000000
vt 0.125000 0.250000
vt 0.125000 0.125000
vt 0.125000 0.375000
vt 0.125000 0.625000
vt 0.156250 1.000000
vt 0.125000 0.875000
vt 0.156250 0.000000
vt 0.125000 0.500000
vt 0.125000 0.750000
vt 0.062500 0.375000
vt 0.062500 0.625000
vt 0.093750 1.000000
vt 0.062500 0.875000
vt 0.093750 0.000000
vt 0.062500 0.125000
vt 0.062500 0.250000
vt 0.062500 0.500000
vt 0.062500 0.750000
vt 0.031250 0.000000
vt 0.000000 0.125000
vt 0.000000 0.375000
vt 0.000000 0.250000
vt 0.000000 0.625000
vt 0.000000 0.500000
vt 0.000000 0.875000
vt 0.000000 0.750000
vt 0.031250 1.000000
vt 1.000000 0.500000
vt 0.937500 0.625000
vt 0.937500 0.500000
vt 1.000000 0.875000
vt 0.937500 0.750000
vt 1.000000 0.750000
vt 1.000000 0.250000
vt 0.937500 0.125000
vt 1.000000 0.125000
vt 0.937500 0.375000
vt 1.000000 0.375000
vt 1.000000 0.625000
vt 0.968750 1.000000
vt 0.937500 0.875000
vt 0.968750 0.000000
vt 0.937500 0.250000
vt 0.875000 0.125000
vt 0.875000 0.375000
vt 0.875000 0.625000
vt 0.906250 1.000000
vt 0.875000 0.875000
vt 0.906250 0.000000
vt 0.875000 0.250000
vt 0.875000 0.500000
vt 0.875000 0.750000
vt 0.812500 0.625000
vt 0.843750 1.000000
vt 0.812500 0.875000
vt 0.843750 0.000000
vt 0.812500 0.125000
vt 0.812500 0.375000
vt 0.812500 0.250000
vt 0.812500 0.500000
vt 0.812500 0.750000
vt 0.781250 0.000000
vt 0.781250 1.000000
s 1
f 112/1/1 62/2/2 5/3/3
f 61/4/4 4/5/5 11/6/6
f 114/7/7 9/8/8 10/9/9
f 1/10/10 8/11/11 2/12/12
f 113/13/13 5/3/3 6/14/14
f 114/7/7 11/6/6 4/5/5
f 2/12/12 9/8/8 3/15/15
f 113/13/13 7/16/16 1/10/10
f 7/16/16 15/17/17 8/11/11
f 5/3/3 13/18/18 6/14/14
f 10/9/9 18/19/19 11/6/6
f 9/8/8 15/17/17 16/20/20
f 6/14/14 14/21/21 7/16/16
f 5/3/3 62/22/2 12/23/22
f 61/24/4 11/6/6 18/19/19
f 9/8/8 17/25/23 10/9/9
f 17/25/23 25/26/24 18/19/19
f 15/17/17 23/27/25 16/20/20
f 13/18/18 21/28/26 14/21/21
f 12/23/22 62/29/2 19/30/27
f 61/31/4 18/19/19 25/26/24
f 17/25/23 23/27/25 24/32/28
f 15/17/17 21/28/26 22/33/29
f 12/23/22 20/34/30 13/18/18
f 21/28/26 27/35/31 28/36/32
f 19/30/27 62/37/2 26/38/33
f 61/39/4 25/26/24 32/40/34
f 23/27/25 31/41/35 24/32/28
f 21/28/26 29/42/36 22/33/29
f 19/30/27 27/35/31 20/34/30
f 24/32/28 32/40/34 25/26/24
f 23/27/25 29/42/36 30/43/37
f 61/44/4 32/40/34 39/45/38
f 30/43/37 38/46/39 31/41/35
f 28/36/32 36/47/40 29/42/36
f 27/35/31 33/48/41 34/49/42
f 32/40/34 38/46/39 39/45/38
f 29/42/36 37/50/43 30/43/37
f 27/35/31 35/51/44 28/36/32
f 26/38/33 62/52/2 33/48/41
f 34/49/42 40/53/45 41/54/46
f 39/45/38 45/55/47 46/56/48
f 36/47/40 44/57/49 37/50/43
f 34/49/42 42/58/50 35/51/44
f 33/48/41 62/59/2 40/53/45
f 61/60/4 39/45/38 46/56/48
f 37/50/43 45/55/47 38/46/39
f 36/47/40 42/58/50 43/61/51
f 45/55/47 53/62/52 46/56/48
f 44/57/49 50/63/53 51/64/54
f 41/54/46 49/65/55 42/58/50
f 40/53/45 62/66/2 47/67/56
f 61/68/4 46/56/48 53/62/52
f 45/55/47 51/64/54 52/69/57
f 42/58/50 50/63/53 43/61/51
f 40/53/45 48/70/58 41/54/46
f 47/67/56 62/71/2 54/72/59
f 61/73/4 53/62/52 60/74/60
f 51/64/54 59/75/61 52/69/57
f 50/63/53 56/76/62 57/77/63
f 47/67/56 55/78/64 48/70/58
f 53/62/52 59/75/61 60/74/60
f 50/63/53 58/79/65 51/64/54
f 48/70/58 56/76/62 49/65/55
f 59/75/61 67/80/66 68/81/67
f 56/76/62 66/82/68 57/77/63
f 54/72/59 64/83/69 55/78/64
f 59/75/61 69/84/70 60/74/60
f 57/77/63 67/80/66 58/79/65
f 55/78/64 65/85/71 56/76/62
f 54/72/59 62/86/2 63/87/72
f 61/88/4 60/74/60 69/84/70
f 69/84/70 75/89/73 76/90/74
f 66/82/68 74/91/75 67/80/66
f 64/83/69 72/92/76 65/85/71
f 63/87/72 62/93/2 70/94/77
f 61/95/4 69/84/70 76/90/74
f 68/81/67 74/91/75 75/89/73
f 66/82/68 72/92/76 73/96/78
f 63/87/72 71/97/79 64/83/69
f 73/96/78 81/98/80 74/91/75
f 71/97/79 79/99/81 72/92/76
f 70/94/77 62/100/2 77/101/82
f 61/102/4 76/90/74 83/103/83
f 75/89/73 81/98/80 82/104/84
f 73/96/78 79/99/81 80/105/85
f 70/94/77 78/106/86 71/97/79
f 75/89/73 83/103/83 76/90/74
f 61/107/4 83/103/83 90/108/87
f 82/104/84 88/109/88 89/110/89
f 80/105/85 86/111/90 87/112/91
f 78/106/86 84/113/92 85/114/93
f 82/104/84 90/108/87 83/103/83
f 80/105/85 88/109/88 81/98/80
f 78/106/86 86/111/90 79/99/81
f 77/101/82 62/115/2 84/113/92
f 87/116/91 93/117/94 94/118/95
f 84/119/92 92/120/96 85/121/93
f 89/122/89 97/123/97 90/124/87
f 87/116/91 95/125/98 88/126/88
f 85/121/93 93/117/94 86/127/90
f 84/119/92 62/128/2 91/129/99
f 61/130/4 90/124/87 97/123/97
f 88/126/88 96/131/100 89/122/89
f 96/131/100 104/132/101 97/123/97
f 94/118/95 102/133/102 95/125/98
f 92/120/96 100/134/103 93/117/94
f 91/129/99 62/135/2 98/136/104
f 61/137/4 97/123/97 104/132/101
f 96/131/100 102/133/102 103/138/105
f 94/118/95 100/134/103 101/139/106
f 91/129/99 99/140/107 92/120/96
f 99/140/107 107/141/108 100/134/103
f 98/136/104 62/142/2 105/143/109
f 61/144/4 104/132/101 111/145/110
f 103/138/105 109/146/111 110/147/112
f 101/139/106 107/141/108 108/148/113
f 98/136/104 106/149/114 99/140/107
f 103/138/105 111/145/110 104/132/101
f 101/139/106 109/146/111 102/133/102
f 61/150/4 111/145/110 4/5/5
f 110/147/112 3/15/15 114/7/7
f 107/141/108 2/12/12 108/148/113
f 106/149/114 112/1/1 113/13/13
f 110/147/112 4/5/5 111/145/110
f 108/148/113 3/15/15 109/146/111
f 106/149/114 1/10/10 107/141/108
f 105/143/109 62/151/2 112/1/1
f 114/7/7 3/15/15 9/8/8
f 1/10/10 7/16/16 8/11/11
f 113/13/13 112/1/1 5/3/3
f 114/7/7 10/9/9 11/6/6
f 2/12/12 8/11/11 9/8/8
f 113/13/13 6/14/14 7/16/16
f 7/16/16 14/21/21 15/17/17
f 5/3/3 12/23/22 13/18/18
f 10/9/9 17/25/23 18/19/19
f 9/8/8 8/11/11 15/17/17
f 6/14/14 13/18/18 14/21/21
f 9/8/8 16/20/20 17/25/23
f 17/25/23 24/32/28 25/26/24
f 15/17/17 22/33/29 23/27/25
f 13/18/18 20/34/30 21/28/26
f 17/25/23 16/20/20 23/27/25
f 15/17/17 14/21/21 21/28/26
f 12/23/22 19/30/27 20/34/30
f 21/28/26 20/34/30 27/35/31
f 23/27/25 30/43/37 31/41/35
f 21/28/26 28/36/32 29/42/36
f 19/30/27 26/38/33 27/35/31
f 24/32/28 31/41/35 32/40/34
f 23/27/25 22/33/29 29/42/36
f 30/43/37 37/50/43 38/46/39
f 28/36/32 35/51/44 36/47/40
f 27/35/31 26/38/33 33/48/41
f 32/40/34 31/41/35 38/46/39
f 29/42/36 36/47/40 37/50/43
f 27/35/31 34/49/42 35/51/44
f 34/49/42 33/48/41 40/53/45
f 39/45/38 38/46/39 45/55/47
f 36/47/40 43/61/51 44/57/49
f 34/49/42 41/54/46 42/58/50
f 37/50/43 44/57/49 45/55/47
f 36/47/40 35/51/44 42/58/50
f 45/55/47 52/69/57 53/62/52
f 44/57/49 43/61/51 50/63/53
f 41/54/46 48/70/58 49/65/55
f 45/55/47 44/57/49 51/64/54
f 42/58/50 49/65/55 50/63/53
f 40/53/45 47/67/56 48/70/58
f 51/64/54 58/79/65 59/75/61
f 50/63/53 49/65/55 56/76/62
f 47/67/56 54/72/59 55/78/64
f 53/62/52 52/69/57 59/75/61
f 50/63/53 57/77/63 58/79/65
f 48/70/58 55/78/64 56/76/62
f 59/75/61 58/79/65 67/80/66
f 56/76/62 65/85/71 66/82/68
f 54/72/59 63/87/72 64/83/69
f 59/75/61 68/81/67 69/84/70
f 57/77/63 66/82/68 67/80/66
f 55/78/64 64/83/69 65/85/71
f 69/84/70 68/81/67 75/89/73
f 66/82/68 73/96/78 74/91/75
f 64/83/69 71/97/79 72/92/76
f 68/81/67 67/80/66 74/91/75
f 66/82/68 65/85/71 72/92/76
f 63/87/72 70/94/77 71/97/79
f 73/96/78 80/105/85 81/98/80
f 71/97/79 78/106/86 79/99/81
f 75/89/73 74/91/75 81/98/80
f 73/96/78 72/92/76 79/99/81
f 70/94/77 77/101/82 78/106/86
f 75/89/73 82/104/84 83/103/83
f 82/104/84 81/98/80 88/109/88
f 80/105/85 79/99/81 86/111/90
f 78/106/86 77/101/82 84/113/92
f 82/104/84 89/110/89 90/108/87
f 80/105/85 87/112/91 88/109/88
f 78/106/86 85/114/93 86/111/90
f 87/116/91 86/127/90 93/117/94
f 84/119/92 91/129/99 92/120/96
f 89/122/89 96/131/100 97/123/97
f 87/116/91 94/118/95 95/125/98
f 85/121/93 92/120/96 93/117/94
f 88/126/88 95/125/98 96/131/100
f 96/131/100 103/138/105 104/132/101
f 94/118/95 101/139/106 102/133/102
f 92/120/96 99/140/107 100/134/103
f 96/131/100 95/125/98 102/133/102
f 94/118/95 93/117/94 100/134/103
f 91/129/99 98/136/104 99/140/107
f 99/140/107 106/149/114 107/141/108
f 103/138/105 102/133/102 109/146/111
f 101/139/106 100/134/103 107/141/108
f 98/136/104 105/143/109 106/149/114
f 103/138/105 110/147/112 111/145/110
f 101/139/106 108/148/113 109/146/111
f 110/147/112 109/146/111 3/15/15
f 107/141/108 1/10/10 2/12/12
f 106/149/114 105/143/109 112/1/1
f 110/147/112 114/7/7 4/5/5
f 108/148/113 2/12/12 3/15/15
f 106/149/114 113/13/13 1/10/10
